<svg xmlns="http://www.w3.org/2000/svg" xmlns:xlink="http://www.w3.org/1999/xlink" viewBox="0,0,256,256" width="24px" height="24px" fill-rule="nonzero"><g fill="#ffffff" fill-rule="nonzero" stroke="none" stroke-width="1" stroke-linecap="butt" stroke-linejoin="miter" stroke-miterlimit="10" stroke-dasharray="" stroke-dashoffset="0" font-family="none" font-weight="none" font-size="none" text-anchor="none" style="mix-blend-mode: normal"><g transform="scale(10.66667,10.66667)"><path d="M18.5,2c-1.933,0 -3.5,1.567 -3.5,3.5c0,2.625 3.0625,3.927 3.0625,7c0,0.241 0.1965,0.45313 0.4375,0.45313c0.241,0 0.47266,-0.17797 0.47266,-0.41797c-0.001,-3.074 3.02734,-4.53516 3.02734,-7.03516c0,-1.933 -1.568,-3.5 -3.5,-3.5zM5,3c-1.105,0 -2,0.895 -2,2v14c0,1.105 0.895,2 2,2h14c1.105,0 2,-0.895 2,-2v-7c0,0 -0.125,2.375 -2,3v2.58594l-5.58594,-5.58594l1.73047,-1.73047l-1.22656,-1.60156l-8.91797,8.91797v-12.58594h8c0.125,-1.25 0.625,-2 0.625,-2zM18.5332,4.29883c0.644,0 1.16797,0.52102 1.16797,1.16602c0,0.645 -0.52397,1.16797 -1.16797,1.16797c-0.644,0 -1.16602,-0.52297 -1.16602,-1.16797c0,-0.644 0.52102,-1.16602 1.16602,-1.16602zM8.50195,6c-1.382,0 -2.50195,1.119 -2.50195,2.5c0,1.381 1.11995,2.5 2.50195,2.5c2.099,0 2.56047,-1.9635 2.35547,-2.9375l-2.35547,-0.00195v0.95508h1.35938c-0.178,0.579 -0.65937,0.99219 -1.35937,0.99219c-0.833,0 -1.50977,-0.67481 -1.50977,-1.50781c0,-0.833 0.67677,-1.50781 1.50977,-1.50781c0.374,0 0.71452,0.13728 0.97852,0.36328l0.70508,-0.70312c-0.445,-0.405 -1.03559,-0.65234 -1.68359,-0.65234zM12,13.41406l5.58594,5.58594h-11.17188z"></path></g></g></svg>